<svg preserveAspectRatio="none" width="100%" height="100%" overflow="visible" style="display: block;" viewBox="0 0 13 15" fill="none" xmlns="http://www.w3.org/2000/svg">
<path id="icon" fill-rule="evenodd" clip-rule="evenodd" d="M1.625 6.5C1.625 3.80761 3.80761 1.625 6.5 1.625C9.19239 1.625 11.375 3.80761 11.375 6.5C11.375 8.36435 10.6014 9.4618 9.68782 10.3149C9.3026 10.6746 8.92268 10.9647 8.5187 11.2731L8.51861 11.2732C8.39918 11.3644 8.27766 11.4571 8.15327 11.5538C7.9013 11.7496 7.62023 11.9759 7.37197 12.2211C7.12931 12.4608 6.83707 12.7958 6.64189 13.2318C6.60812 13.3072 6.56729 13.3483 6.54675 13.3633C6.53823 13.3695 6.53384 13.3711 6.53241 13.3715L6.53235 13.3716C6.53134 13.3719 6.52236 13.375 6.5 13.375C6.47764 13.375 6.46866 13.3719 6.46765 13.3716L6.46759 13.3715C6.46616 13.3711 6.46177 13.3695 6.45325 13.3633C6.43271 13.3483 6.39188 13.3072 6.35811 13.2318C6.16293 12.7958 5.87069 12.4608 5.62803 12.2211C5.37977 11.9759 5.0987 11.7496 4.84673 11.5538C4.72234 11.4571 4.60082 11.3644 4.4814 11.2732L4.4813 11.2731C4.07733 10.9647 3.6974 10.6746 3.31218 10.3149C2.39858 9.4618 1.625 8.36435 1.625 6.5ZM13 6.5C13 9.89909 10.9338 11.4751 9.47091 12.591C8.8357 13.0755 8.31422 13.4732 8.125 13.8958C7.85448 14.5 7.28832 15 6.5 15C5.71168 15 5.14552 14.5 4.875 13.8958C4.68578 13.4732 4.1643 13.0755 3.52909 12.591C2.06617 11.4751 0 9.89909 0 6.5C0 2.91015 2.91015 0 6.5 0C10.0899 0 13 2.91015 13 6.5ZM8 6.5C8 7.32843 7.32843 8 6.5 8C5.67157 8 5 7.32843 5 6.5C5 5.67157 5.67157 5 6.5 5C7.32843 5 8 5.67157 8 6.5ZM9.5 6.5C9.5 8.15685 8.15685 9.5 6.5 9.5C4.84315 9.5 3.5 8.15685 3.5 6.5C3.5 4.84315 4.84315 3.5 6.5 3.5C8.15685 3.5 9.5 4.84315 9.5 6.5Z" fill="var(--fill-0, #18181B)"/>
</svg>
